<?xml version="1.0" encoding="UTF-8" standalone="no"?>
<!DOCTYPE svg PUBLIC "-//W3C//DTD SVG 1.1//EN"
 "http://www.w3.org/Graphics/SVG/1.1/DTD/svg11.dtd">
<!-- Generated by graphviz version 10.0.1 (20240210.2158)
 -->
<!-- Title: G Pages: 1 -->
<svg width="2807pt" height="505pt"
 viewBox="0.00 0.00 2807.37 505.00" xmlns="http://www.w3.org/2000/svg" xmlns:xlink="http://www.w3.org/1999/xlink">
<g id="graph0" class="graph" transform="scale(1 1) rotate(0) translate(4 501)">
<title>G</title>
<polygon fill="white" stroke="none" points="-4,4 -4,-501 2803.37,-501 2803.37,4 -4,4"/>
<!-- fountain -->
<g id="node1" class="node">
<title>fountain</title>
<ellipse fill="none" stroke="black" cx="40.58" cy="-273" rx="40.58" ry="18"/>
<text text-anchor="middle" x="40.58" y="-267.57" font-family="Times New Roman,serif" font-size="14.00">fountain</text>
</g>
<!-- with -->
<g id="node2" class="node">
<title>with</title>
<ellipse fill="none" stroke="black" cx="150.92" cy="-306" rx="27" ry="18"/>
<text text-anchor="middle" x="150.92" y="-300.57" font-family="Times New Roman,serif" font-size="14.00">with</text>
</g>
<!-- fountain&#45;&gt;with -->
<g id="edge1" class="edge">
<title>fountain&#45;&gt;with</title>
<path fill="none" stroke="red" d="M74.68,-283.08C87.48,-286.98 102.14,-291.45 115.1,-295.39"/>
<polygon fill="red" stroke="red" points="113.93,-298.7 124.52,-298.26 115.97,-292 113.93,-298.7"/>
<text text-anchor="middle" x="102.54" y="-295.45" font-family="Times New Roman,serif" font-size="14.00">1</text>
</g>
<!-- its -->
<g id="node44" class="node">
<title>its</title>
<ellipse fill="none" stroke="black" cx="247.67" cy="-309" rx="27" ry="18"/>
<text text-anchor="middle" x="247.67" y="-303.57" font-family="Times New Roman,serif" font-size="14.00">its</text>
</g>
<!-- with&#45;&gt;its -->
<g id="edge48" class="edge">
<title>with&#45;&gt;its</title>
<path fill="none" stroke="red" d="M178.31,-306.84C187.86,-307.14 198.83,-307.49 209.15,-307.81"/>
<polygon fill="red" stroke="red" points="208.8,-311.3 218.91,-308.12 209.02,-304.31 208.8,-311.3"/>
<text text-anchor="middle" x="199.29" y="-310.45" font-family="Times New Roman,serif" font-size="14.00">1</text>
</g>
<!-- lunch -->
<g id="node3" class="node">
<title>lunch</title>
<ellipse fill="none" stroke="black" cx="2088.56" cy="-75" rx="30.61" ry="18"/>
<text text-anchor="middle" x="2088.56" y="-69.58" font-family="Times New Roman,serif" font-size="14.00">lunch</text>
</g>
<!-- the -->
<g id="node4" class="node">
<title>the</title>
<ellipse fill="none" stroke="black" cx="1759.33" cy="-147" rx="27" ry="18"/>
<text text-anchor="middle" x="1759.33" y="-141.57" font-family="Times New Roman,serif" font-size="14.00">the</text>
</g>
<!-- lunch&#45;&gt;the -->
<g id="edge2" class="edge">
<title>lunch&#45;&gt;the</title>
<path fill="none" stroke="black" d="M2062.69,-65.06C2028.1,-52.4 1963.41,-32.86 1907.29,-39.25 1860.63,-44.56 1841.5,-34.3 1804.33,-63 1786.53,-76.75 1775.19,-99.75 1768.49,-118.21"/>
<polygon fill="black" stroke="black" points="1765.22,-116.97 1765.39,-127.56 1771.86,-119.18 1765.22,-116.97"/>
<text text-anchor="middle" x="1910.67" y="-42.45" font-family="Times New Roman,serif" font-size="14.00">1</text>
</g>
<!-- bell -->
<g id="node5" class="node">
<title>bell</title>
<ellipse fill="none" stroke="black" cx="2215.48" cy="-70" rx="27" ry="18"/>
<text text-anchor="middle" x="2215.48" y="-64.58" font-family="Times New Roman,serif" font-size="14.00">bell</text>
</g>
<!-- lunch&#45;&gt;bell -->
<g id="edge3" class="edge">
<title>lunch&#45;&gt;bell</title>
<path fill="none" stroke="black" d="M2119.48,-73.8C2136.65,-73.12 2158.38,-72.25 2176.71,-71.51"/>
<polygon fill="black" stroke="black" points="2176.83,-75.01 2186.68,-71.11 2176.55,-68.02 2176.83,-75.01"/>
<text text-anchor="middle" x="2140.54" y="-75.45" font-family="Times New Roman,serif" font-size="14.00">1</text>
</g>
<!-- the&#45;&gt;lunch -->
<g id="edge45" class="edge">
<title>the&#45;&gt;lunch</title>
<path fill="none" stroke="black" d="M1775.2,-132.04C1788.2,-120.01 1808.22,-103.85 1829.08,-96 1902,-68.58 1994.42,-68.63 2046.68,-71.55"/>
<polygon fill="black" stroke="black" points="2046.42,-75.04 2056.62,-72.17 2046.86,-68.05 2046.42,-75.04"/>
<text text-anchor="middle" x="1910.67" y="-79.45" font-family="Times New Roman,serif" font-size="14.00">1</text>
</g>
<!-- game -->
<g id="node6" class="node">
<title>game</title>
<ellipse fill="none" stroke="black" cx="1859.19" cy="-177" rx="30.11" ry="18"/>
<text text-anchor="middle" x="1859.19" y="-171.57" font-family="Times New Roman,serif" font-size="14.00">game</text>
</g>
<!-- the&#45;&gt;game -->
<g id="edge44" class="edge">
<title>the&#45;&gt;game</title>
<path fill="none" stroke="red" d="M1784.52,-154.42C1795.53,-157.79 1808.8,-161.86 1821.03,-165.61"/>
<polygon fill="red" stroke="red" points="1819.84,-168.9 1830.43,-168.49 1821.89,-162.21 1819.84,-168.9"/>
<text text-anchor="middle" x="1807.71" y="-164.45" font-family="Times New Roman,serif" font-size="14.00">1</text>
</g>
<!-- same -->
<g id="node25" class="node">
<title>same</title>
<ellipse fill="none" stroke="black" cx="1859.19" cy="-123" rx="29.61" ry="18"/>
<text text-anchor="middle" x="1859.19" y="-117.58" font-family="Times New Roman,serif" font-size="14.00">same</text>
</g>
<!-- the&#45;&gt;same -->
<g id="edge46" class="edge">
<title>the&#45;&gt;same</title>
<path fill="none" stroke="black" d="M1783.43,-138.52C1790.11,-136.27 1797.46,-133.98 1804.33,-132.25 1808.99,-131.08 1813.91,-130.01 1818.81,-129.04"/>
<polygon fill="black" stroke="black" points="1819.36,-132.5 1828.57,-127.26 1818.11,-125.61 1819.36,-132.5"/>
<text text-anchor="middle" x="1807.71" y="-135.45" font-family="Times New Roman,serif" font-size="14.00">1</text>
</g>
<!-- park -->
<g id="node37" class="node">
<title>park</title>
<ellipse fill="none" stroke="black" cx="1859.19" cy="-231" rx="27.11" ry="18"/>
<text text-anchor="middle" x="1859.19" y="-225.57" font-family="Times New Roman,serif" font-size="14.00">park</text>
</g>
<!-- the&#45;&gt;park -->
<g id="edge47" class="edge">
<title>the&#45;&gt;park</title>
<path fill="none" stroke="black" d="M1776.49,-160.87C1791.84,-174.05 1815.15,-194.05 1832.94,-209.33"/>
<polygon fill="black" stroke="black" points="1830.66,-211.98 1840.53,-215.84 1835.22,-206.67 1830.66,-211.98"/>
<text text-anchor="middle" x="1807.71" y="-191.45" font-family="Times New Roman,serif" font-size="14.00">2</text>
</g>
<!-- rang -->
<g id="node34" class="node">
<title>rang</title>
<ellipse fill="none" stroke="black" cx="2339.4" cy="-61" rx="27" ry="18"/>
<text text-anchor="middle" x="2339.4" y="-55.58" font-family="Times New Roman,serif" font-size="14.00">rang</text>
</g>
<!-- bell&#45;&gt;rang -->
<g id="edge40" class="edge">
<title>bell&#45;&gt;rang</title>
<path fill="none" stroke="black" d="M2242.63,-68.07C2259.67,-66.81 2282.16,-65.15 2301.06,-63.76"/>
<polygon fill="black" stroke="black" points="2301.06,-67.27 2310.78,-63.04 2300.55,-60.28 2301.06,-67.27"/>
<text text-anchor="middle" x="2290.41" y="-67.45" font-family="Times New Roman,serif" font-size="14.00">1</text>
</g>
<!-- s -->
<g id="node7" class="node">
<title>s</title>
<ellipse fill="none" stroke="black" cx="1973.63" cy="-261" rx="27" ry="18"/>
<text text-anchor="middle" x="1973.63" y="-255.57" font-family="Times New Roman,serif" font-size="14.00">s</text>
</g>
<!-- game&#45;&gt;s -->
<g id="edge4" class="edge">
<title>game&#45;&gt;s</title>
<path fill="none" stroke="red" d="M1879.01,-191.06C1897.25,-204.69 1925.1,-225.5 1945.69,-240.88"/>
<polygon fill="red" stroke="red" points="1943.54,-243.64 1953.65,-246.82 1947.73,-238.03 1943.54,-243.64"/>
<text text-anchor="middle" x="1910.67" y="-219.45" font-family="Times New Roman,serif" font-size="14.00">1</text>
</g>
<!-- s&#45;&gt;fountain -->
<g id="edge52" class="edge">
<title>s&#45;&gt;fountain</title>
<path fill="none" stroke="red" d="M1946.25,-262.26C1934.35,-262.71 1920.12,-263.09 1907.29,-263 1719.28,-261.67 1672.32,-257 1484.3,-257 149.92,-257 149.92,-257 149.92,-257 129.77,-257 107.73,-259.74 88.82,-262.96"/>
<polygon fill="red" stroke="red" points="88.21,-259.51 78.99,-264.73 89.45,-266.4 88.21,-259.51"/>
<text text-anchor="middle" x="990.85" y="-259.45" font-family="Times New Roman,serif" font-size="14.00">1</text>
</g>
<!-- s&#45;&gt;lunch -->
<g id="edge51" class="edge">
<title>s&#45;&gt;lunch</title>
<path fill="none" stroke="black" d="M1992.5,-248.06C2000.66,-241.22 2009.72,-232.14 2015.21,-222 2035.63,-184.31 2012.79,-164.94 2033.21,-127.25 2039.61,-115.44 2049.6,-104.71 2059.29,-96.08"/>
<polygon fill="black" stroke="black" points="2061.42,-98.86 2066.83,-89.75 2056.92,-93.5 2061.42,-98.86"/>
<text text-anchor="middle" x="2036.58" y="-130.45" font-family="Times New Roman,serif" font-size="14.00">1</text>
</g>
<!-- cycle -->
<g id="node23" class="node">
<title>cycle</title>
<ellipse fill="none" stroke="black" cx="2088.56" cy="-312" rx="30.11" ry="18"/>
<text text-anchor="middle" x="2088.56" y="-306.57" font-family="Times New Roman,serif" font-size="14.00">cycle</text>
</g>
<!-- s&#45;&gt;cycle -->
<g id="edge53" class="edge">
<title>s&#45;&gt;cycle</title>
<path fill="none" stroke="black" d="M1996.67,-270.95C2012.88,-278.27 2035.2,-288.35 2053.67,-296.69"/>
<polygon fill="black" stroke="black" points="2052.08,-299.82 2062.64,-300.74 2054.97,-293.44 2052.08,-299.82"/>
<text text-anchor="middle" x="2036.58" y="-292.45" font-family="Times New Roman,serif" font-size="14.00">1</text>
</g>
<!-- soothing -->
<g id="node8" class="node">
<title>soothing</title>
<ellipse fill="none" stroke="black" cx="847.97" cy="-479" rx="42.58" ry="18"/>
<text text-anchor="middle" x="847.97" y="-473.57" font-family="Times New Roman,serif" font-size="14.00">soothing</text>
</g>
<!-- background -->
<g id="node9" class="node">
<title>background</title>
<ellipse fill="none" stroke="black" cx="990.85" cy="-479" rx="55.06" ry="18"/>
<text text-anchor="middle" x="990.85" y="-473.57" font-family="Times New Roman,serif" font-size="14.00">background</text>
</g>
<!-- soothing&#45;&gt;background -->
<g id="edge5" class="edge">
<title>soothing&#45;&gt;background</title>
<path fill="none" stroke="black" d="M890.86,-479C901.32,-479 912.8,-479 924.11,-479"/>
<polygon fill="black" stroke="black" points="923.81,-482.5 933.81,-479 923.81,-475.5 923.81,-482.5"/>
<text text-anchor="middle" x="914.42" y="-481.45" font-family="Times New Roman,serif" font-size="14.00">1</text>
</g>
<!-- melody -->
<g id="node48" class="node">
<title>melody</title>
<ellipse fill="none" stroke="black" cx="1126.75" cy="-479" rx="38.09" ry="18"/>
<text text-anchor="middle" x="1126.75" y="-473.57" font-family="Times New Roman,serif" font-size="14.00">melody</text>
</g>
<!-- background&#45;&gt;melody -->
<g id="edge54" class="edge">
<title>background&#45;&gt;melody</title>
<path fill="none" stroke="black" d="M1046.31,-479C1056.51,-479 1067.11,-479 1077.12,-479"/>
<polygon fill="black" stroke="black" points="1077.03,-482.5 1087.03,-479 1077.03,-475.5 1077.03,-482.5"/>
<text text-anchor="middle" x="1067.28" y="-481.45" font-family="Times New Roman,serif" font-size="14.00">1</text>
</g>
<!-- provided -->
<g id="node10" class="node">
<title>provided</title>
<ellipse fill="none" stroke="black" cx="619.32" cy="-351" rx="44.08" ry="18"/>
<text text-anchor="middle" x="619.32" y="-345.57" font-family="Times New Roman,serif" font-size="14.00">provided</text>
</g>
<!-- a -->
<g id="node11" class="node">
<title>a</title>
<ellipse fill="none" stroke="black" cx="733.15" cy="-400" rx="27" ry="18"/>
<text text-anchor="middle" x="733.15" y="-394.57" font-family="Times New Roman,serif" font-size="14.00">a</text>
</g>
<!-- provided&#45;&gt;a -->
<g id="edge6" class="edge">
<title>provided&#45;&gt;a</title>
<path fill="none" stroke="black" d="M650.29,-364.13C665.53,-370.81 684.08,-378.94 699.67,-385.77"/>
<polygon fill="black" stroke="black" points="697.95,-388.84 708.52,-389.65 700.76,-382.43 697.95,-388.84"/>
<text text-anchor="middle" x="684.77" y="-381.45" font-family="Times New Roman,serif" font-size="14.00">1</text>
</g>
<!-- a&#45;&gt;soothing -->
<g id="edge31" class="edge">
<title>a&#45;&gt;soothing</title>
<path fill="none" stroke="black" d="M746.33,-415.86C754.53,-425.75 766.01,-438.21 778.15,-447 786.29,-452.9 795.69,-458.12 804.88,-462.55"/>
<polygon fill="black" stroke="black" points="803.15,-465.61 813.7,-466.58 806.06,-459.24 803.15,-465.61"/>
<text text-anchor="middle" x="781.52" y="-452.45" font-family="Times New Roman,serif" font-size="14.00">1</text>
</g>
<!-- repetition -->
<g id="node18" class="node">
<title>repetition</title>
<ellipse fill="none" stroke="black" cx="847.97" cy="-368" rx="45.08" ry="18"/>
<text text-anchor="middle" x="847.97" y="-362.57" font-family="Times New Roman,serif" font-size="14.00">repetition</text>
</g>
<!-- a&#45;&gt;repetition -->
<g id="edge32" class="edge">
<title>a&#45;&gt;repetition</title>
<path fill="none" stroke="black" d="M758.63,-393.06C770.59,-389.66 785.42,-385.46 799.48,-381.47"/>
<polygon fill="black" stroke="black" points="800.41,-384.84 809.08,-378.75 798.5,-378.11 800.41,-384.84"/>
<text text-anchor="middle" x="781.52" y="-388.45" font-family="Times New Roman,serif" font-size="14.00">1</text>
</g>
<!-- for -->
<g id="node12" class="node">
<title>for</title>
<ellipse fill="none" stroke="black" cx="2339.4" cy="-212" rx="27" ry="18"/>
<text text-anchor="middle" x="2339.4" y="-206.57" font-family="Times New Roman,serif" font-size="14.00">for</text>
</g>
<!-- decades -->
<g id="node13" class="node">
<title>decades</title>
<ellipse fill="none" stroke="black" cx="2450.84" cy="-217" rx="41.08" ry="18"/>
<text text-anchor="middle" x="2450.84" y="-211.57" font-family="Times New Roman,serif" font-size="14.00">decades</text>
</g>
<!-- for&#45;&gt;decades -->
<g id="edge7" class="edge">
<title>for&#45;&gt;decades</title>
<path fill="none" stroke="red" d="M2366.61,-213.2C2376.19,-213.64 2387.38,-214.15 2398.39,-214.65"/>
<polygon fill="red" stroke="red" points="2398.07,-218.14 2408.22,-215.1 2398.39,-211.15 2398.07,-218.14"/>
<text text-anchor="middle" x="2388.38" y="-217.45" font-family="Times New Roman,serif" font-size="14.00">1</text>
</g>
<!-- people -->
<g id="node47" class="node">
<title>people</title>
<ellipse fill="none" stroke="black" cx="2570.27" cy="-268" rx="35.6" ry="18"/>
<text text-anchor="middle" x="2570.27" y="-262.57" font-family="Times New Roman,serif" font-size="14.00">people</text>
</g>
<!-- decades&#45;&gt;people -->
<g id="edge55" class="edge">
<title>decades&#45;&gt;people</title>
<path fill="none" stroke="red" d="M2480.87,-229.61C2496.36,-236.33 2515.59,-244.68 2532.15,-251.88"/>
<polygon fill="red" stroke="red" points="2530.63,-255.03 2541.2,-255.81 2533.42,-248.61 2530.63,-255.03"/>
<text text-anchor="middle" x="2513.3" y="-247.45" font-family="Times New Roman,serif" font-size="14.00">1</text>
</g>
<!-- their -->
<g id="node14" class="node">
<title>their</title>
<ellipse fill="none" stroke="black" cx="2088.56" cy="-228" rx="27" ry="18"/>
<text text-anchor="middle" x="2088.56" y="-222.57" font-family="Times New Roman,serif" font-size="14.00">their</text>
</g>
<!-- sandwiches -->
<g id="node15" class="node">
<title>sandwiches</title>
<ellipse fill="none" stroke="black" cx="2215.48" cy="-254" rx="53.56" ry="18"/>
<text text-anchor="middle" x="2215.48" y="-248.57" font-family="Times New Roman,serif" font-size="14.00">sandwiches</text>
</g>
<!-- their&#45;&gt;sandwiches -->
<g id="edge8" class="edge">
<title>their&#45;&gt;sandwiches</title>
<path fill="none" stroke="black" d="M2114.84,-233.26C2127.41,-235.88 2143.12,-239.15 2158.34,-242.31"/>
<polygon fill="black" stroke="black" points="2157.29,-245.67 2167.79,-244.28 2158.72,-238.82 2157.29,-245.67"/>
<text text-anchor="middle" x="2140.54" y="-241.45" font-family="Times New Roman,serif" font-size="14.00">1</text>
</g>
<!-- each -->
<g id="node16" class="node">
<title>each</title>
<ellipse fill="none" stroke="black" cx="2339.4" cy="-267" rx="27.61" ry="18"/>
<text text-anchor="middle" x="2339.4" y="-261.57" font-family="Times New Roman,serif" font-size="14.00">each</text>
</g>
<!-- sandwiches&#45;&gt;each -->
<g id="edge9" class="edge">
<title>sandwiches&#45;&gt;each</title>
<path fill="none" stroke="black" d="M2267.12,-259.4C2278.25,-260.59 2289.84,-261.82 2300.37,-262.95"/>
<polygon fill="black" stroke="black" points="2299.9,-266.41 2310.21,-263.99 2300.64,-259.45 2299.9,-266.41"/>
<text text-anchor="middle" x="2290.41" y="-265.45" font-family="Times New Roman,serif" font-size="14.00">1</text>
</g>
<!-- bite -->
<g id="node30" class="node">
<title>bite</title>
<ellipse fill="none" stroke="black" cx="2450.84" cy="-323" rx="27" ry="18"/>
<text text-anchor="middle" x="2450.84" y="-317.57" font-family="Times New Roman,serif" font-size="14.00">bite</text>
</g>
<!-- each&#45;&gt;bite -->
<g id="edge42" class="edge">
<title>each&#45;&gt;bite</title>
<path fill="none" stroke="black" d="M2361.76,-277.93C2377.98,-286.23 2400.54,-297.77 2418.76,-307.09"/>
<polygon fill="black" stroke="black" points="2417.06,-310.16 2427.56,-311.6 2420.25,-303.93 2417.06,-310.16"/>
<text text-anchor="middle" x="2388.38" y="-294.45" font-family="Times New Roman,serif" font-size="14.00">1</text>
</g>
<!-- had -->
<g id="node17" class="node">
<title>had</title>
<ellipse fill="none" stroke="black" cx="2215.48" cy="-187" rx="27" ry="18"/>
<text text-anchor="middle" x="2215.48" y="-181.57" font-family="Times New Roman,serif" font-size="14.00">had</text>
</g>
<!-- had&#45;&gt;for -->
<g id="edge10" class="edge">
<title>had&#45;&gt;for</title>
<path fill="none" stroke="black" d="M2241.74,-192.18C2259.15,-195.75 2282.56,-200.55 2301.98,-204.53"/>
<polygon fill="black" stroke="black" points="2301.19,-207.94 2311.69,-206.52 2302.59,-201.09 2301.19,-207.94"/>
<text text-anchor="middle" x="2290.41" y="-205.45" font-family="Times New Roman,serif" font-size="14.00">1</text>
</g>
<!-- of -->
<g id="node19" class="node">
<title>of</title>
<ellipse fill="none" stroke="black" cx="990.85" cy="-358" rx="27" ry="18"/>
<text text-anchor="middle" x="990.85" y="-352.57" font-family="Times New Roman,serif" font-size="14.00">of</text>
</g>
<!-- repetition&#45;&gt;of -->
<g id="edge11" class="edge">
<title>repetition&#45;&gt;of</title>
<path fill="none" stroke="black" d="M892.78,-364.89C911.86,-363.54 934,-361.96 952.31,-360.66"/>
<polygon fill="black" stroke="black" points="952.49,-364.16 962.22,-359.96 951.99,-357.18 952.49,-364.16"/>
<text text-anchor="middle" x="914.42" y="-365.45" font-family="Times New Roman,serif" font-size="14.00">1</text>
</g>
<!-- chase -->
<g id="node21" class="node">
<title>chase</title>
<ellipse fill="none" stroke="black" cx="1126.75" cy="-303" rx="31.6" ry="18"/>
<text text-anchor="middle" x="1126.75" y="-297.57" font-family="Times New Roman,serif" font-size="14.00">chase</text>
</g>
<!-- of&#45;&gt;chase -->
<g id="edge22" class="edge">
<title>of&#45;&gt;chase</title>
<path fill="none" stroke="black" d="M1008.45,-344.14C1022.36,-333.33 1043.21,-318.9 1063.91,-311.25 1070.16,-308.94 1076.97,-307.26 1083.72,-306.05"/>
<polygon fill="black" stroke="black" points="1084.02,-309.54 1093.41,-304.63 1083.01,-302.62 1084.02,-309.54"/>
<text text-anchor="middle" x="1067.28" y="-314.45" font-family="Times New Roman,serif" font-size="14.00">1</text>
</g>
<!-- yesterday -->
<g id="node24" class="node">
<title>yesterday</title>
<ellipse fill="none" stroke="black" cx="1228.91" cy="-349" rx="46.07" ry="18"/>
<text text-anchor="middle" x="1228.91" y="-343.57" font-family="Times New Roman,serif" font-size="14.00">yesterday</text>
</g>
<!-- of&#45;&gt;yesterday -->
<g id="edge21" class="edge">
<title>of&#45;&gt;yesterday</title>
<path fill="none" stroke="black" d="M1018.02,-357C1054.8,-355.6 1122.74,-353.01 1171.37,-351.16"/>
<polygon fill="black" stroke="black" points="1171.29,-354.66 1181.15,-350.78 1171.02,-347.67 1171.29,-354.66"/>
<text text-anchor="middle" x="1067.28" y="-357.45" font-family="Times New Roman,serif" font-size="14.00">1</text>
</g>
<!-- enjoying -->
<g id="node20" class="node">
<title>enjoying</title>
<ellipse fill="none" stroke="black" cx="1973.63" cy="-195" rx="41.58" ry="18"/>
<text text-anchor="middle" x="1973.63" y="-189.57" font-family="Times New Roman,serif" font-size="14.00">enjoying</text>
</g>
<!-- enjoying&#45;&gt;their -->
<g id="edge12" class="edge">
<title>enjoying&#45;&gt;their</title>
<path fill="none" stroke="black" d="M2008.82,-204.99C2022.75,-209.06 2038.84,-213.76 2052.83,-217.85"/>
<polygon fill="black" stroke="black" points="2051.48,-221.1 2062.07,-220.55 2053.45,-214.39 2051.48,-221.1"/>
<text text-anchor="middle" x="2036.58" y="-216.45" font-family="Times New Roman,serif" font-size="14.00">1</text>
</g>
<!-- and -->
<g id="node22" class="node">
<title>and</title>
<ellipse fill="none" stroke="black" cx="1319.99" cy="-303" rx="27" ry="18"/>
<text text-anchor="middle" x="1319.99" y="-297.57" font-family="Times New Roman,serif" font-size="14.00">and</text>
</g>
<!-- chase&#45;&gt;and -->
<g id="edge13" class="edge">
<title>chase&#45;&gt;and</title>
<path fill="none" stroke="black" d="M1158.47,-303C1191.87,-303 1245.25,-303 1281.18,-303"/>
<polygon fill="black" stroke="black" points="1281.13,-306.5 1291.13,-303 1281.13,-299.5 1281.13,-306.5"/>
<text text-anchor="middle" x="1228.91" y="-305.45" font-family="Times New Roman,serif" font-size="14.00">1</text>
</g>
<!-- escape -->
<g id="node31" class="node">
<title>escape</title>
<ellipse fill="none" stroke="black" cx="1425.83" cy="-303" rx="36.09" ry="18"/>
<text text-anchor="middle" x="1425.83" y="-297.57" font-family="Times New Roman,serif" font-size="14.00">escape</text>
</g>
<!-- and&#45;&gt;escape -->
<g id="edge20" class="edge">
<title>and&#45;&gt;escape</title>
<path fill="none" stroke="black" d="M1347.46,-303C1356.82,-303 1367.64,-303 1378.16,-303"/>
<polygon fill="black" stroke="black" points="1377.88,-306.5 1387.88,-303 1377.88,-299.5 1377.88,-306.5"/>
<text text-anchor="middle" x="1368.36" y="-305.45" font-family="Times New Roman,serif" font-size="14.00">1</text>
</g>
<!-- cycle&#45;&gt;of -->
<g id="edge14" class="edge">
<title>cycle&#45;&gt;of</title>
<path fill="none" stroke="black" d="M2060.32,-318.92C1984.77,-337.49 1765.95,-387 1581.05,-387 1125.75,-387 1125.75,-387 1125.75,-387 1091.2,-387 1052.75,-377.66 1025.95,-369.59"/>
<polygon fill="black" stroke="black" points="1027.26,-366.33 1016.67,-366.68 1025.17,-373.01 1027.26,-366.33"/>
<text text-anchor="middle" x="1580.05" y="-389.45" font-family="Times New Roman,serif" font-size="14.00">1</text>
</g>
<!-- yesterday&#45;&gt;s -->
<g id="edge15" class="edge">
<title>yesterday&#45;&gt;s</title>
<path fill="none" stroke="black" d="M1274.7,-351.45C1385.72,-356.21 1681.41,-360.75 1914.04,-291 1923.96,-288.03 1934.19,-283.4 1943.27,-278.67"/>
<polygon fill="black" stroke="black" points="1944.91,-281.76 1951.99,-273.88 1941.54,-275.63 1944.91,-281.76"/>
<text text-anchor="middle" x="1580.05" y="-349.45" font-family="Times New Roman,serif" font-size="14.00">1</text>
</g>
<!-- chime -->
<g id="node26" class="node">
<title>chime</title>
<ellipse fill="none" stroke="black" cx="1973.63" cy="-131" rx="32.6" ry="18"/>
<text text-anchor="middle" x="1973.63" y="-125.58" font-family="Times New Roman,serif" font-size="14.00">chime</text>
</g>
<!-- same&#45;&gt;chime -->
<g id="edge16" class="edge">
<title>same&#45;&gt;chime</title>
<path fill="none" stroke="black" d="M1888.85,-125.04C1901.25,-125.92 1916.03,-126.97 1929.7,-127.95"/>
<polygon fill="black" stroke="black" points="1929.11,-131.41 1939.34,-128.63 1929.61,-124.43 1929.11,-131.41"/>
<text text-anchor="middle" x="1910.67" y="-129.45" font-family="Times New Roman,serif" font-size="14.00">1</text>
</g>
<!-- it -->
<g id="node40" class="node">
<title>it</title>
<ellipse fill="none" stroke="black" cx="2088.56" cy="-160" rx="27" ry="18"/>
<text text-anchor="middle" x="2088.56" y="-154.57" font-family="Times New Roman,serif" font-size="14.00">it</text>
</g>
<!-- chime&#45;&gt;it -->
<g id="edge30" class="edge">
<title>chime&#45;&gt;it</title>
<path fill="none" stroke="black" d="M2003.71,-138.47C2018.44,-142.25 2036.44,-146.87 2051.99,-150.86"/>
<polygon fill="black" stroke="black" points="2050.77,-154.16 2061.32,-153.26 2052.51,-147.38 2050.77,-154.16"/>
<text text-anchor="middle" x="2036.58" y="-150.45" font-family="Times New Roman,serif" font-size="14.00">1</text>
</g>
<!-- noon -->
<g id="node27" class="node">
<title>noon</title>
<ellipse fill="none" stroke="black" cx="1645.5" cy="-215" rx="29.61" ry="18"/>
<text text-anchor="middle" x="1645.5" y="-209.57" font-family="Times New Roman,serif" font-size="14.00">noon</text>
</g>
<!-- noon&#45;&gt;the -->
<g id="edge17" class="edge">
<title>noon&#45;&gt;the</title>
<path fill="none" stroke="black" d="M1667.28,-202.37C1684.7,-191.77 1709.79,-176.52 1729.22,-164.7"/>
<polygon fill="black" stroke="black" points="1730.78,-167.85 1737.5,-159.67 1727.14,-161.87 1730.78,-167.85"/>
<text text-anchor="middle" x="1710.96" y="-179.45" font-family="Times New Roman,serif" font-size="14.00">1</text>
</g>
<!-- children -->
<g id="node28" class="node">
<title>children</title>
<ellipse fill="none" stroke="black" cx="847.97" cy="-147" rx="40.09" ry="18"/>
<text text-anchor="middle" x="847.97" y="-141.57" font-family="Times New Roman,serif" font-size="14.00">children</text>
</g>
<!-- laughed -->
<g id="node29" class="node">
<title>laughed</title>
<ellipse fill="none" stroke="black" cx="990.85" cy="-147" rx="39.09" ry="18"/>
<text text-anchor="middle" x="990.85" y="-141.57" font-family="Times New Roman,serif" font-size="14.00">laughed</text>
</g>
<!-- children&#45;&gt;laughed -->
<g id="edge18" class="edge">
<title>children&#45;&gt;laughed</title>
<path fill="none" stroke="black" d="M888.22,-147C904.22,-147 922.93,-147 939.89,-147"/>
<polygon fill="black" stroke="black" points="939.79,-150.5 949.79,-147 939.79,-143.5 939.79,-150.5"/>
<text text-anchor="middle" x="914.42" y="-149.45" font-family="Times New Roman,serif" font-size="14.00">1</text>
</g>
<!-- as -->
<g id="node43" class="node">
<title>as</title>
<ellipse fill="none" stroke="black" cx="1126.75" cy="-147" rx="27" ry="18"/>
<text text-anchor="middle" x="1126.75" y="-141.57" font-family="Times New Roman,serif" font-size="14.00">as</text>
</g>
<!-- laughed&#45;&gt;as -->
<g id="edge35" class="edge">
<title>laughed&#45;&gt;as</title>
<path fill="none" stroke="black" d="M1030.22,-147C1048.35,-147 1069.92,-147 1087.98,-147"/>
<polygon fill="black" stroke="black" points="1087.75,-150.5 1097.75,-147 1087.75,-143.5 1087.75,-150.5"/>
<text text-anchor="middle" x="1067.28" y="-149.45" font-family="Times New Roman,serif" font-size="14.00">1</text>
</g>
<!-- bite&#45;&gt;a -->
<g id="edge19" class="edge">
<title>bite&#45;&gt;a</title>
<path fill="none" stroke="black" d="M2432.77,-336.35C2405.25,-357.07 2348.62,-396.51 2293.79,-415 2229.22,-436.77 2209.68,-433 2141.54,-433 846.97,-433 846.97,-433 846.97,-433 818.86,-433 788.34,-423.45 766.14,-414.62"/>
<polygon fill="black" stroke="black" points="767.63,-411.45 757.05,-410.84 764.94,-417.91 767.63,-411.45"/>
<text text-anchor="middle" x="1645.5" y="-435.45" font-family="Times New Roman,serif" font-size="14.00">1</text>
</g>
<!-- at -->
<g id="node36" class="node">
<title>at</title>
<ellipse fill="none" stroke="black" cx="1531.68" cy="-303" rx="27" ry="18"/>
<text text-anchor="middle" x="1531.68" y="-297.57" font-family="Times New Roman,serif" font-size="14.00">at</text>
</g>
<!-- escape&#45;&gt;at -->
<g id="edge26" class="edge">
<title>escape&#45;&gt;at</title>
<path fill="none" stroke="black" d="M1462.28,-303C1472.16,-303 1482.93,-303 1492.94,-303"/>
<polygon fill="black" stroke="black" points="1492.73,-306.5 1502.73,-303 1492.73,-299.5 1492.73,-306.5"/>
<text text-anchor="middle" x="1483.3" y="-305.45" font-family="Times New Roman,serif" font-size="14.00">1</text>
</g>
<!-- repeating -->
<g id="node32" class="node">
<title>repeating</title>
<ellipse fill="none" stroke="black" cx="1645.5" cy="-147" rx="44.08" ry="18"/>
<text text-anchor="middle" x="1645.5" y="-141.57" font-family="Times New Roman,serif" font-size="14.00">repeating</text>
</g>
<!-- repeating&#45;&gt;the -->
<g id="edge23" class="edge">
<title>repeating&#45;&gt;the</title>
<path fill="none" stroke="black" d="M1690.06,-147C1700.09,-147 1710.67,-147 1720.44,-147"/>
<polygon fill="black" stroke="black" points="1720.34,-150.5 1730.34,-147 1720.34,-143.5 1720.34,-150.5"/>
<text text-anchor="middle" x="1710.96" y="-149.45" font-family="Times New Roman,serif" font-size="14.00">1</text>
</g>
<!-- tag -->
<g id="node33" class="node">
<title>tag</title>
<ellipse fill="none" stroke="black" cx="1531.68" cy="-147" rx="27" ry="18"/>
<text text-anchor="middle" x="1531.68" y="-141.57" font-family="Times New Roman,serif" font-size="14.00">tag</text>
</g>
<!-- tag&#45;&gt;repeating -->
<g id="edge24" class="edge">
<title>tag&#45;&gt;repeating</title>
<path fill="none" stroke="black" d="M1558.89,-147C1568.09,-147 1578.8,-147 1589.46,-147"/>
<polygon fill="black" stroke="black" points="1589.43,-150.5 1599.43,-147 1589.43,-143.5 1589.43,-150.5"/>
<text text-anchor="middle" x="1580.05" y="-149.45" font-family="Times New Roman,serif" font-size="14.00">1</text>
</g>
<!-- echoing -->
<g id="node35" class="node">
<title>echoing</title>
<ellipse fill="none" stroke="black" cx="2450.84" cy="-28" rx="39.59" ry="18"/>
<text text-anchor="middle" x="2450.84" y="-22.57" font-family="Times New Roman,serif" font-size="14.00">echoing</text>
</g>
<!-- rang&#45;&gt;echoing -->
<g id="edge25" class="edge">
<title>rang&#45;&gt;echoing</title>
<path fill="none" stroke="black" d="M2364.42,-53.76C2376.75,-50.04 2392.16,-45.39 2406.49,-41.07"/>
<polygon fill="black" stroke="black" points="2407.15,-44.53 2415.71,-38.29 2405.13,-37.83 2407.15,-44.53"/>
<text text-anchor="middle" x="2388.38" y="-50.45" font-family="Times New Roman,serif" font-size="14.00">1</text>
</g>
<!-- echoing&#45;&gt;the -->
<g id="edge43" class="edge">
<title>echoing&#45;&gt;the</title>
<path fill="none" stroke="black" d="M2420.17,-16.13C2398.44,-8.49 2368.05,0 2340.4,0 1858.19,0 1858.19,0 1858.19,0 1802.14,0 1776.24,-74.96 1766.01,-117.83"/>
<polygon fill="black" stroke="black" points="1762.61,-116.98 1763.86,-127.5 1769.45,-118.5 1762.61,-116.98"/>
<text text-anchor="middle" x="2088.56" y="-2.45" font-family="Times New Roman,serif" font-size="14.00">1</text>
</g>
<!-- at&#45;&gt;noon -->
<g id="edge50" class="edge">
<title>at&#45;&gt;noon</title>
<path fill="none" stroke="black" d="M1549.66,-289.63C1567.76,-275.39 1596.65,-252.65 1617.8,-236.01"/>
<polygon fill="black" stroke="black" points="1619.73,-238.95 1625.43,-230.01 1615.4,-233.44 1619.73,-238.95"/>
<text text-anchor="middle" x="1580.05" y="-269.45" font-family="Times New Roman,serif" font-size="14.00">1</text>
</g>
<!-- park&#45;&gt;s -->
<g id="edge27" class="edge">
<title>park&#45;&gt;s</title>
<path fill="none" stroke="black" d="M1884.86,-237.58C1900.24,-241.69 1920.28,-247.03 1937.32,-251.58"/>
<polygon fill="black" stroke="black" points="1935.98,-254.85 1946.55,-254.04 1937.79,-248.08 1935.98,-254.85"/>
<text text-anchor="middle" x="1910.67" y="-248.45" font-family="Times New Roman,serif" font-size="14.00">1</text>
</g>
<!-- park&#45;&gt;enjoying -->
<g id="edge28" class="edge">
<title>park&#45;&gt;enjoying</title>
<path fill="none" stroke="black" d="M1877.2,-217.05C1881.45,-213.1 1885.79,-208.61 1889.29,-204 1899.83,-190.16 1892.43,-178.29 1907.29,-169.25 1918.85,-162.22 1932.66,-166.12 1944.6,-172.8"/>
<polygon fill="black" stroke="black" points="1942.51,-175.62 1952.82,-178.06 1946.29,-169.72 1942.51,-175.62"/>
<text text-anchor="middle" x="1910.67" y="-172.45" font-family="Times New Roman,serif" font-size="14.00">1</text>
</g>
<!-- they -->
<g id="node38" class="node">
<title>they</title>
<ellipse fill="none" stroke="black" cx="1319.99" cy="-147" rx="27" ry="18"/>
<text text-anchor="middle" x="1319.99" y="-141.57" font-family="Times New Roman,serif" font-size="14.00">they</text>
</g>
<!-- played -->
<g id="node39" class="node">
<title>played</title>
<ellipse fill="none" stroke="black" cx="1425.83" cy="-147" rx="35.1" ry="18"/>
<text text-anchor="middle" x="1425.83" y="-141.57" font-family="Times New Roman,serif" font-size="14.00">played</text>
</g>
<!-- they&#45;&gt;played -->
<g id="edge29" class="edge">
<title>they&#45;&gt;played</title>
<path fill="none" stroke="black" d="M1347.46,-147C1357.08,-147 1368.25,-147 1379.06,-147"/>
<polygon fill="black" stroke="black" points="1379.04,-150.5 1389.04,-147 1379.04,-143.5 1379.04,-150.5"/>
<text text-anchor="middle" x="1368.36" y="-149.45" font-family="Times New Roman,serif" font-size="14.00">1</text>
</g>
<!-- played&#45;&gt;tag -->
<g id="edge41" class="edge">
<title>played&#45;&gt;tag</title>
<path fill="none" stroke="black" d="M1461.41,-147C1471.61,-147 1482.82,-147 1493.2,-147"/>
<polygon fill="black" stroke="black" points="1492.95,-150.5 1502.95,-147 1492.95,-143.5 1492.95,-150.5"/>
<text text-anchor="middle" x="1483.3" y="-149.45" font-family="Times New Roman,serif" font-size="14.00">1</text>
</g>
<!-- it&#45;&gt;had -->
<g id="edge37" class="edge">
<title>it&#45;&gt;had</title>
<path fill="none" stroke="black" d="M2114.54,-165.4C2132.84,-169.35 2157.95,-174.78 2178.42,-179.21"/>
<polygon fill="black" stroke="black" points="2177.55,-182.6 2188.06,-181.29 2179.03,-175.76 2177.55,-182.6"/>
<text text-anchor="middle" x="2140.54" y="-174.45" font-family="Times New Roman,serif" font-size="14.00">1</text>
</g>
<!-- in -->
<g id="node41" class="node">
<title>in</title>
<ellipse fill="none" stroke="black" cx="2772.37" cy="-368" rx="27" ry="18"/>
<text text-anchor="middle" x="2772.37" y="-362.57" font-family="Times New Roman,serif" font-size="14.00">in</text>
</g>
<!-- in&#45;&gt;the -->
<g id="edge33" class="edge">
<title>in&#45;&gt;the</title>
<path fill="none" stroke="red" d="M2749.66,-377.9C2730.77,-385.61 2702.45,-395 2676.62,-395 2035.58,-395 2035.58,-395 2035.58,-395 1904.85,-395 1808.21,-238.69 1773.93,-174.26"/>
<polygon fill="red" stroke="red" points="1777.03,-172.64 1769.31,-165.39 1770.82,-175.87 1777.03,-172.64"/>
<text text-anchor="middle" x="2290.41" y="-397.45" font-family="Times New Roman,serif" font-size="14.00">1</text>
</g>
<!-- sat -->
<g id="node42" class="node">
<title>sat</title>
<ellipse fill="none" stroke="black" cx="2675.62" cy="-341" rx="27" ry="18"/>
<text text-anchor="middle" x="2675.62" y="-335.57" font-family="Times New Roman,serif" font-size="14.00">sat</text>
</g>
<!-- sat&#45;&gt;in -->
<g id="edge34" class="edge">
<title>sat&#45;&gt;in</title>
<path fill="none" stroke="red" d="M2701.02,-347.95C2711.74,-351.01 2724.53,-354.65 2736.25,-357.99"/>
<polygon fill="red" stroke="red" points="2735.02,-361.28 2745.59,-360.66 2736.94,-354.55 2735.02,-361.28"/>
<text text-anchor="middle" x="2723.99" y="-357.45" font-family="Times New Roman,serif" font-size="14.00">1</text>
</g>
<!-- as&#45;&gt;they -->
<g id="edge49" class="edge">
<title>as&#45;&gt;they</title>
<path fill="none" stroke="black" d="M1153.94,-147C1186.8,-147 1243.4,-147 1281.01,-147"/>
<polygon fill="black" stroke="black" points="1280.99,-150.5 1290.99,-147 1280.99,-143.5 1280.99,-150.5"/>
<text text-anchor="middle" x="1228.91" y="-149.45" font-family="Times New Roman,serif" font-size="14.00">1</text>
</g>
<!-- repetitive -->
<g id="node45" class="node">
<title>repetitive</title>
<ellipse fill="none" stroke="black" cx="361.5" cy="-315" rx="44.08" ry="18"/>
<text text-anchor="middle" x="361.5" y="-309.57" font-family="Times New Roman,serif" font-size="14.00">repetitive</text>
</g>
<!-- its&#45;&gt;repetitive -->
<g id="edge36" class="edge">
<title>its&#45;&gt;repetitive</title>
<path fill="none" stroke="black" d="M274.89,-310.41C284.28,-310.91 295.24,-311.5 306.13,-312.08"/>
<polygon fill="black" stroke="black" points="305.7,-315.56 315.87,-312.61 306.07,-308.57 305.7,-315.56"/>
<text text-anchor="middle" x="296.04" y="-314.45" font-family="Times New Roman,serif" font-size="14.00">1</text>
</g>
<!-- splashes -->
<g id="node46" class="node">
<title>splashes</title>
<ellipse fill="none" stroke="black" cx="490.41" cy="-327" rx="42.08" ry="18"/>
<text text-anchor="middle" x="490.41" y="-321.57" font-family="Times New Roman,serif" font-size="14.00">splashes</text>
</g>
<!-- repetitive&#45;&gt;splashes -->
<g id="edge56" class="edge">
<title>repetitive&#45;&gt;splashes</title>
<path fill="none" stroke="black" d="M404.76,-319C415.35,-320 426.84,-321.08 437.83,-322.12"/>
<polygon fill="black" stroke="black" points="437.26,-325.58 447.55,-323.04 437.92,-318.62 437.26,-325.58"/>
<text text-anchor="middle" x="426.95" y="-324.45" font-family="Times New Roman,serif" font-size="14.00">1</text>
</g>
<!-- splashes&#45;&gt;provided -->
<g id="edge38" class="edge">
<title>splashes&#45;&gt;provided</title>
<path fill="none" stroke="black" d="M529.48,-334.2C541.57,-336.49 555.12,-339.05 567.94,-341.47"/>
<polygon fill="black" stroke="black" points="566.98,-344.85 577.46,-343.27 568.29,-337.98 566.98,-344.85"/>
<text text-anchor="middle" x="553.86" y="-341.45" font-family="Times New Roman,serif" font-size="14.00">1</text>
</g>
<!-- people&#45;&gt;sat -->
<g id="edge39" class="edge">
<title>people&#45;&gt;sat</title>
<path fill="none" stroke="red" d="M2591.69,-282.42C2607.57,-293.64 2629.77,-309.32 2647.2,-321.63"/>
<polygon fill="red" stroke="red" points="2644.9,-324.29 2655.08,-327.2 2648.94,-318.57 2644.9,-324.29"/>
<text text-anchor="middle" x="2627.24" y="-311.45" font-family="Times New Roman,serif" font-size="14.00">1</text>
</g>
</g>
</svg>
