<?xml version="1.0" encoding="UTF-8" standalone="no"?>
<!DOCTYPE svg PUBLIC "-//W3C//DTD SVG 1.1//EN"
 "http://www.w3.org/Graphics/SVG/1.1/DTD/svg11.dtd">
<!-- Generated by graphviz version 10.0.1 (20240210.2158)
 -->
<!-- Title: G Pages: 1 -->
<svg width="391pt" height="395pt"
 viewBox="0.00 0.00 391.00 395.00" xmlns="http://www.w3.org/2000/svg" xmlns:xlink="http://www.w3.org/1999/xlink">
<g id="graph0" class="graph" transform="scale(1 1) rotate(0) translate(4 391)">
<title>G</title>
<polygon fill="white" stroke="none" points="-4,4 -4,-391 387,-391 387,4 -4,4"/>
<!-- new -->
<g id="node1" class="node">
<title>new</title>
<ellipse fill="none" stroke="black" cx="228" cy="-369" rx="27" ry="18"/>
<text text-anchor="middle" x="228" y="-363.57" font-family="Times New Roman,serif" font-size="14.00">new</text>
</g>
<!-- worlds -->
<g id="node2" class="node">
<title>worlds</title>
<ellipse fill="none" stroke="black" cx="305" cy="-281.25" rx="36.09" ry="18"/>
<text text-anchor="middle" x="305" y="-275.82" font-family="Times New Roman,serif" font-size="14.00">worlds</text>
</g>
<!-- new&#45;&gt;worlds -->
<g id="edge1" class="edge">
<title>new&#45;&gt;worlds</title>
<path fill="none" stroke="black" d="M241.41,-353.06C252.94,-340.23 269.78,-321.47 283.23,-306.49"/>
<polygon fill="black" stroke="black" points="285.61,-309.08 289.69,-299.3 280.4,-304.41 285.61,-309.08"/>
<text text-anchor="middle" x="276.38" y="-319.7" font-family="Times New Roman,serif" font-size="14.00">1</text>
</g>
<!-- civilizations -->
<g id="node3" class="node">
<title>civilizations</title>
<ellipse fill="none" stroke="black" cx="82" cy="-281.25" rx="53.56" ry="18"/>
<text text-anchor="middle" x="82" y="-275.82" font-family="Times New Roman,serif" font-size="14.00">civilizations</text>
</g>
<!-- new&#45;&gt;civilizations -->
<g id="edge2" class="edge">
<title>new&#45;&gt;civilizations</title>
<path fill="none" stroke="black" d="M208.31,-356.44C185.05,-342.78 145.93,-319.8 117.37,-303.03"/>
<polygon fill="black" stroke="black" points="119.46,-300.19 109.06,-298.14 115.91,-306.23 119.46,-300.19"/>
<text text-anchor="middle" x="172.38" y="-319.7" font-family="Times New Roman,serif" font-size="14.00">1</text>
</g>
<!-- life -->
<g id="node4" class="node">
<title>life</title>
<ellipse fill="none" stroke="black" cx="181" cy="-281.25" rx="27" ry="18"/>
<text text-anchor="middle" x="181" y="-275.82" font-family="Times New Roman,serif" font-size="14.00">life</text>
</g>
<!-- new&#45;&gt;life -->
<g id="edge3" class="edge">
<title>new&#45;&gt;life</title>
<path fill="none" stroke="red" d="M219.16,-351.87C212.44,-339.61 203.06,-322.5 195.28,-308.3"/>
<polygon fill="red" stroke="red" points="198.56,-307.01 190.69,-299.93 192.43,-310.38 198.56,-307.01"/>
<text text-anchor="middle" x="212.38" y="-319.7" font-family="Times New Roman,serif" font-size="14.00">1</text>
</g>
<!-- to -->
<g id="node5" class="node">
<title>to</title>
<ellipse fill="none" stroke="black" cx="305" cy="-193.5" rx="27" ry="18"/>
<text text-anchor="middle" x="305" y="-188.07" font-family="Times New Roman,serif" font-size="14.00">to</text>
</g>
<!-- worlds&#45;&gt;to -->
<g id="edge4" class="edge">
<title>worlds&#45;&gt;to</title>
<path fill="none" stroke="black" d="M305,-262.9C305,-251.51 305,-236.34 305,-223.18"/>
<polygon fill="black" stroke="black" points="308.5,-223.34 305,-213.34 301.5,-223.34 308.5,-223.34"/>
<text text-anchor="middle" x="308.38" y="-231.95" font-family="Times New Roman,serif" font-size="14.00">1</text>
</g>
<!-- and -->
<g id="node8" class="node">
<title>and</title>
<ellipse fill="none" stroke="black" cx="220" cy="-193.5" rx="27" ry="18"/>
<text text-anchor="middle" x="220" y="-188.07" font-family="Times New Roman,serif" font-size="14.00">and</text>
</g>
<!-- life&#45;&gt;and -->
<g id="edge10" class="edge">
<title>life&#45;&gt;and</title>
<path fill="none" stroke="red" d="M188.52,-263.72C193.97,-251.74 201.46,-235.27 207.76,-221.41"/>
<polygon fill="red" stroke="red" points="210.92,-222.91 211.88,-212.36 204.55,-220.01 210.92,-222.91"/>
<text text-anchor="middle" x="207.38" y="-231.95" font-family="Times New Roman,serif" font-size="14.00">1</text>
</g>
<!-- explore -->
<g id="node6" class="node">
<title>explore</title>
<ellipse fill="none" stroke="black" cx="196" cy="-105.75" rx="38.09" ry="18"/>
<text text-anchor="middle" x="196" y="-100.33" font-family="Times New Roman,serif" font-size="14.00">explore</text>
</g>
<!-- to&#45;&gt;explore -->
<g id="edge7" class="edge">
<title>to&#45;&gt;explore</title>
<path fill="none" stroke="red" d="M287.97,-179.1C270.83,-165.62 244.12,-144.61 223.89,-128.69"/>
<polygon fill="red" stroke="red" points="226.32,-126.15 216.3,-122.72 222,-131.65 226.32,-126.15"/>
<text text-anchor="middle" x="263.38" y="-144.2" font-family="Times New Roman,serif" font-size="14.00">1</text>
</g>
<!-- seek -->
<g id="node9" class="node">
<title>seek</title>
<ellipse fill="none" stroke="black" cx="311" cy="-105.75" rx="27.11" ry="18"/>
<text text-anchor="middle" x="311" y="-100.33" font-family="Times New Roman,serif" font-size="14.00">seek</text>
</g>
<!-- to&#45;&gt;seek -->
<g id="edge8" class="edge">
<title>to&#45;&gt;seek</title>
<path fill="none" stroke="black" d="M306.21,-175.15C307.01,-163.76 308.07,-148.59 308.99,-135.43"/>
<polygon fill="black" stroke="black" points="312.48,-135.81 309.68,-125.59 305.49,-135.32 312.48,-135.81"/>
<text text-anchor="middle" x="311.38" y="-144.2" font-family="Times New Roman,serif" font-size="14.00">1</text>
</g>
<!-- strange -->
<g id="node7" class="node">
<title>strange</title>
<ellipse fill="none" stroke="black" cx="38" cy="-18" rx="37.09" ry="18"/>
<text text-anchor="middle" x="38" y="-12.57" font-family="Times New Roman,serif" font-size="14.00">strange</text>
</g>
<!-- explore&#45;&gt;strange -->
<g id="edge5" class="edge">
<title>explore&#45;&gt;strange</title>
<path fill="none" stroke="red" d="M171.66,-91.54C145.02,-77.08 102.12,-53.8 72.13,-37.52"/>
<polygon fill="red" stroke="red" points="73.9,-34.5 63.44,-32.81 70.56,-40.65 73.9,-34.5"/>
<text text-anchor="middle" x="135.38" y="-56.45" font-family="Times New Roman,serif" font-size="14.00">1</text>
</g>
<!-- strange&#45;&gt;new -->
<g id="edge11" class="edge">
<title>strange&#45;&gt;new</title>
<path fill="none" stroke="red" d="M25.77,-35.45C14.66,-52.05 0,-78.86 0,-104.75 0,-282.25 0,-282.25 0,-282.25 0,-322.46 125.81,-350.25 190.52,-361.88"/>
<polygon fill="red" stroke="red" points="189.9,-365.33 200.35,-363.6 191.11,-358.43 189.9,-365.33"/>
<text text-anchor="middle" x="3.38" y="-188.07" font-family="Times New Roman,serif" font-size="14.00">1</text>
</g>
<!-- and&#45;&gt;new -->
<g id="edge6" class="edge">
<title>and&#45;&gt;new</title>
<path fill="none" stroke="black" d="M220.8,-211.96C222.19,-241.89 225.02,-303.28 226.69,-339.49"/>
<polygon fill="black" stroke="black" points="223.18,-339.39 227.13,-349.22 230.17,-339.07 223.18,-339.39"/>
<text text-anchor="middle" x="227.38" y="-275.82" font-family="Times New Roman,serif" font-size="14.00">1</text>
</g>
<!-- out -->
<g id="node10" class="node">
<title>out</title>
<ellipse fill="none" stroke="black" cx="356" cy="-18" rx="27" ry="18"/>
<text text-anchor="middle" x="356" y="-12.57" font-family="Times New Roman,serif" font-size="14.00">out</text>
</g>
<!-- seek&#45;&gt;out -->
<g id="edge9" class="edge">
<title>seek&#45;&gt;out</title>
<path fill="none" stroke="black" d="M319.68,-88.22C326.03,-76.12 334.77,-59.45 342.09,-45.5"/>
<polygon fill="black" stroke="black" points="345.1,-47.3 346.65,-36.82 338.9,-44.05 345.1,-47.3"/>
<text text-anchor="middle" x="340.38" y="-56.45" font-family="Times New Roman,serif" font-size="14.00">1</text>
</g>
<!-- out&#45;&gt;new -->
<g id="edge12" class="edge">
<title>out&#45;&gt;new</title>
<path fill="none" stroke="black" d="M360.11,-35.97C363.92,-53.19 369,-80.66 369,-104.75 369,-282.25 369,-282.25 369,-282.25 369,-330.83 307.14,-352.67 265.37,-361.89"/>
<polygon fill="black" stroke="black" points="264.77,-358.44 255.67,-363.86 266.17,-365.3 264.77,-358.44"/>
<text text-anchor="middle" x="372.38" y="-188.07" font-family="Times New Roman,serif" font-size="14.00">1</text>
</g>
</g>
</svg>
